HIERARCHY
ROOT Hips
{
  OFFSET 0 0 0
  CHANNELS 6 Xposition Yposition Zposition Zrotation Xrotation Yrotation
  JOINT Spine
  {
    OFFSET 0.00000000 0.00000000 0.00000000
    CHANNELS 3 Zrotation Xrotation Yrotation
    JOINT Spine1
    {
      OFFSET 0.19000000 0.00000000 0.00000000
      CHANNELS 3 Zrotation Xrotation Yrotation
      JOINT Neck
      {
        OFFSET 0.22500000 0.00600000 0.00000000
        CHANNELS 3 Zrotation Xrotation Yrotation
        JOINT Head
        {
          OFFSET 0.14000000 0.00030878 0.00000000
          CHANNELS 3 Zrotation Xrotation Yrotation
          End Site
          {
            OFFSET 0.17000000 0.00000000 0.00000000
          }
        }
      }
      JOINT LeftShoulder
      {
        OFFSET 0.19800000 0.03700000 0.04300000
        CHANNELS 3 Zrotation Xrotation Yrotation
        JOINT LeftArm
        {
          OFFSET 0.08000000 0.00000000 0.00000000
          CHANNELS 3 Zrotation Xrotation Yrotation
          JOINT LeftForeArm
          {
            OFFSET 0.15200000 0.00000000 0.00000000
            CHANNELS 3 Zrotation Xrotation Yrotation
            JOINT LeftHand
            {
              OFFSET 0.17800000 0.00000000 0.00000000
              CHANNELS 3 Zrotation Xrotation Yrotation
              End Site
              {
                OFFSET 0.07200000 0.00000000 0.00000000
              }
            }
          }
        }
      }
      JOINT RightShoulder
      {
        OFFSET 0.19800000 0.03700000 -0.04300000
        CHANNELS 3 Zrotation Xrotation Yrotation
        JOINT RightArm
        {
          OFFSET 0.08000000 0.00000000 0.00151654
          CHANNELS 3 Zrotation Xrotation Yrotation
          JOINT RightForeArm
          {
            OFFSET 0.15200000 0.00000000 0.00000000
            CHANNELS 3 Zrotation Xrotation Yrotation
            JOINT RightHand
            {
              OFFSET 0.17800000 0.00000000 0.00000000
              CHANNELS 3 Zrotation Xrotation Yrotation
              End Site
              {
                OFFSET 0.07200000 0.00000000 0.00000000
              }
            }
          }
        }
      }
    }
  }
  JOINT LeftUpLeg
  {
    OFFSET 0.05984250 -0.07666000 0.04788790
    CHANNELS 3 Zrotation Xrotation Yrotation
    JOINT LeftLeg
    {
      OFFSET 0.16000000 0.00000000 0.00000000
      CHANNELS 3 Zrotation Xrotation Yrotation
      JOINT LeftFoot
      {
        OFFSET 0.18000000 0.00000000 0.00000000
        CHANNELS 3 Zrotation Xrotation Yrotation
        End Site
        {
          OFFSET 0.00000000 -0.10800000 0.00000000
        }
      }
    }
  }
  JOINT RightUpLeg
  {
    OFFSET 0.05984250 -0.07665980 -0.04788790
    CHANNELS 3 Zrotation Xrotation Yrotation
    JOINT RightLeg
    {
      OFFSET 0.16000000 0.00000000 0.00000000
      CHANNELS 3 Zrotation Xrotation Yrotation
      JOINT RightFoot
      {
        OFFSET 0.18000000 0.00000000 0.00000000
        CHANNELS 3 Zrotation Xrotation Yrotation
        End Site
        {
          OFFSET 0.00000000 -0.10800000 0.00000000
        }
      }
    }
  }
  JOINT Tail
  {
    OFFSET 0.06836960 -0.00722574 0.00000000
    CHANNELS 3 Zrotation Xrotation Yrotation
    JOINT Tail1
    {
      OFFSET 0.12000000 0.00000000 0.00000000
      CHANNELS 3 Zrotation Xrotation Yrotation
      End Site
      {
        OFFSET 0.12000000 0.00000000 0.00000000
      }
    }
  }
}
MOTION
Frames:	7
Frame Time:	0.0166667
-0.9862157 0.4315400 0.1739415 -8.26856 6.21902 -31.1942 179.288 -0.213677 -12.8812 22.6467 0.948852 3.79961 21.1854 -1.17632 5.66491 -119.341 58.9183 126.441 -108.811 -33.2755 -140.552 109.875 -22.7716 -145.537 -69.3162 7.88 6.94878 -20.0011 6.3737 -25.9549 73.5526 -35.4987 50.457 48.0913 -11.138 -45.7219 -68.7851 -12.8641 -2.55554 -7.00603 0.381069 -0.555683 -143.634 -4.27567 -19.0574 102.631 14.8007 2.18909 25.7495 -2.52418 -4.22548 -99.9064 -0.619853 1.65734 88.0348 2.21909 -2.05382 49.2041 -0.429147 -2.89544 -30.1029 32.7555 11.1954 16.6317 -38.6954 8.50712 
-0.9917297 0.4298190 0.1656971 -9.57190 5.80164 -32.4259 179.42 -0.493013 -13.3077 23.257 0.71813 3.2827 20.3088 -0.915142 5.66096 -120.2 60.0853 126.226 -109.086 -33.6727 -140.482 109.788 -23.3694 -145.248 -67.2725 7.15975 5.87007 -18.7883 6.00913 -25.2237 73.5251 -35.3401 50.0827 47.1311 -14.0373 -45.2702 -68.6012 -14.5846 -1.7529 -8.78879 0.281597 0.38746 -144.865 -6.27892 -18.9444 95.7684 16.3312 4.415 29.1421 -2.72583 -4.63651 -97.3587 -1.97801 2.02059 87.7854 1.86689 -1.67926 49.498 -0.321993 -2.84342 -29.0479 31.3681 14.1901 17.0276 -37.476 8.49476 
-0.9981274 0.4278310 0.1568793 -10.3985 5.11337 -33.3718 178.966 -0.731613 -13.6116 23.8527 0.45654 3.22998 19.8927 -1.09318 5.65426 -120.238 62.2759 125.466 -108.884 -33.7512 -139.736 109.924 -24.0757 -145.018 -65.1339 5.82246 5.0133 -17.2685 5.34537 -23.5179 73.5371 -35.282 50.0094 46.3048 -16.948 -45.7695 -67.9107 -16.4279 -0.867167 -10.6995 0.248497 0.940275 -145.395 -7.98223 -18.7826 87.076 17.2167 7.4718 34.8338 -3.00515 -5.12888 -95.1411 -2.97609 2.51066 87.1949 1.63444 -1.39591 49.9701 -0.214689 -2.7892 -27.9296 30.1978 16.4283 17.3056 -36.034 8.475 
-1.0051979 0.4261480 0.1480828 -10.8725 4.34824 -34.1343 178.26 -0.864911 -13.8038 24.1488 0.259975 3.52991 19.7443 -1.38301 5.17218 -119.925 64.0784 124.72 -108.473 -33.67 -138.72 109.714 -24.5776 -145.064 -63.5224 3.68071 4.75543 -15.1057 4.33065 -20.6539 73.5804 -35.1593 49.9098 45.6979 -19.7067 -46.3799 -67.3602 -16.8675 -0.378057 -11.5872 0.0882659 1.7439 -144.643 -9.25272 -18.2167 77.1402 17.4248 10.9327 41.3156 -3.34658 -5.60805 -93.1189 -3.5119 3.44742 86.1775 1.01992 -1.26327 50.7746 -0.0313756 -2.66717 -26.5668 28.9427 18.1259 17.4634 -34.2573 8.23691 
-1.0127510 0.4245180 0.1395941 -10.9144 3.65397 -34.8035 177.333 -0.734059 -13.5862 24.272 0.262123 3.25785 19.6508 -1.64109 5.0335 -119.407 65.8705 124.13 -108.752 -34.1019 -138.613 107.554 -23.5808 -145.472 -63.816 -2.31518 6.10799 -10.3405 3.07032 -16.8997 74.0775 -34.6813 50.5164 45.2053 -22.2006 -46.6404 -66.8626 -17.1261 -0.534514 -12.5414 0.0677669 2.09236 -142.935 -9.89733 -17.3776 67.0697 18.6573 14.2592 46.4196 -3.77949 -6.08372 -91.2501 -3.94129 4.0396 84.8603 0.471761 -1.11562 51.5864 0.143081 -2.54934 -24.9011 27.3536 19.3043 17.6749 -32.0848 7.90276 
-1.0203654 0.4231320 0.1317628 -10.7990 3.36856 -35.4163 176.783 -0.561554 -13.3839 24.0138 0.347888 3.03173 19.5164 -1.60057 4.63468 -119.155 67.7646 124.107 -109.178 -34.6934 -138.595 104.718 -21.1411 -145.903 -64.3932 -14.7858 9.14174 -2.13709 3.06268 -17.9652 74.4916 -34.2465 50.9734 44.6696 -24.8468 -47.0759 -66.4369 -17.0765 -0.550557 -13.0243 -0.0628685 2.65817 -141.259 -10.4454 -17.0588 59.1412 21.1354 17.2286 49.0688 -4.15565 -6.44577 -89.1561 -3.96669 4.53892 83.1908 -0.2666 -1.01106 51.842 0.348184 -2.36894 -22.3648 25.2375 19.8119 17.6713 -29.4102 7.30612 
-1.0273850 0.4216310 0.1248580 -10.8116 3.70343 -36.0825 177.114 -0.332258 -13.3363 23.1169 0.593877 2.83685 19.6524 -1.7657 4.67779 -118.041 70.1666 123.825 -109.831 -35.4219 -138.919 103.812 -19.0374 -145.814 -62.7928 -32.8797 14.3182 6.1043 3.8316 -25.8478 74.6997 -34.0411 51.2352 44.668 -27.6576 -47.3415 -66.4805 -16.8497 -0.720645 -13.1125 -0.187054 3.10708 -139.795 -11.445 -16.8012 57.3149 22.05 17.8175 48.402 -4.10878 -6.35244 -86.9445 -3.71498 4.99793 81.6188 -1.17089 -0.953245 52.3907 0.618742 -2.12682 -18.7588 22.4274 20.2075 17.5078 -26.289 6.54386 
